<svg width="200" height="37" viewBox="0 0 938 94" fill="none" xmlns="http://www.w3.org/2000/svg" aria-hidden="true"><mask id="mask0_111_2" style="mask-type:luminance" maskUnits="userSpaceOnUse" x="0" y="0" width="938" height="94"><path d="M937.804 0H0V93.7797H937.804V0Z" fill="white"></path></mask><g mask="url(#mask0_111_2)"><path d="M67.3744 0.000393837C24.1391 0.000393837 0 11.91 0 39.132V54.6247C0 81.537 24.3024 93.7563 63.6076 93.7563C78.2302 93.6849 92.7926 91.8778 106.989 88.3732V38.4923H55.2878V54.1449H87.9066V75.5108C80.2349 76.6192 72.4983 77.2183 64.7475 77.304C33.2721 77.304 19.8959 69.1374 19.8959 51.8617V41.9154C19.8959 24.6261 32.4554 16.4731 67.3574 16.4731C79.5125 16.5492 91.6343 17.7556 103.566 20.0766V3.58689C91.6536 1.1766 79.5282 -0.0249886 67.3744 0.000393837ZM354.097 0.817053V92.8035H417.857C448.683 92.8035 461.729 79.754 461.729 52.1917V41.4254C461.729 13.8632 448.68 0.81365 417.857 0.81365L354.097 0.817053ZM415.584 76.3308H373.979V17.2898H415.571C433.673 17.2898 441.83 23.9762 441.83 41.109V52.5252C441.83 69.6512 433.663 76.3444 415.571 76.3444M180.873 0.000393837C139.611 0.000393837 122.159 11.0899 122.159 37.5123V56.2682C122.159 82.6906 139.608 93.7801 180.873 93.7801C222.138 93.7801 239.587 82.6872 239.587 56.2682V37.5123C239.587 11.0899 222.138 0.000393837 180.873 0.000393837ZM180.873 77.3074C148.744 77.3074 142.058 71.9243 142.058 53.8285V39.9589C142.058 21.8562 148.744 16.4799 180.873 16.4799C213.002 16.4799 219.692 21.863 219.692 39.9589V53.985C219.692 71.9243 213.005 77.3074 180.873 77.3074ZM255.084 0.817053V92.8035H339.404V76.3308H274.979V0.817053H255.084ZM831.632 92.8035H851.531V54.965H866.86L909.915 92.8035H937.818L884.306 45.9919V45.3386L931.945 0.81365H906.829L867.183 38.4923H851.531V0.817053H831.632V92.8035ZM781.393 0.000393837C738.178 0.000393837 714.019 11.91 714.019 39.132V54.6247C714.019 81.8467 738.158 93.7563 781.393 93.7563C792.894 93.7894 804.369 92.6504 815.639 90.357V73.8843C804.352 76.0824 792.885 77.2284 781.387 77.3074C746.485 77.3074 733.925 69.1408 733.925 51.8651V41.9154C733.925 24.6261 746.485 16.4731 781.387 16.4731C792.885 16.5539 804.352 17.701 815.639 19.8997V3.42356C804.369 1.12277 792.895 -0.0242071 781.393 0.000393837ZM604.11 0.817053V92.8035H701.306V76.3308H624.006V53.8217H696.583V38.169H624.006V17.2898H699.847V0.817053H604.11ZM480.645 0.817053V92.8035H555.328C575.551 92.8035 585.991 83.5072 585.991 68.0111C585.991 56.2682 580.281 48.9285 569.028 47.2986V43.7121C573.173 42.7452 576.847 40.3547 579.41 36.9571C581.973 33.5595 583.263 29.3703 583.054 25.1195C583.054 9.46684 572.451 0.817053 551.085 0.817053H480.645ZM552.409 76.1675H500.544V53.985H552.409C560.729 53.985 565.295 58.0683 565.295 65.2379C565.295 72.2509 560.729 76.1675 552.409 76.1675ZM550.126 38.4923H500.544V17.2898H550.122C558.765 17.2898 562.845 20.7129 562.845 27.8927C562.845 35.0725 558.762 38.4957 550.122 38.4957" fill="#1d1d1b"></path></g></svg>
