<svg xmlns="http://www.w3.org/2000/svg" width="240.945" height="71.1" viewBox="0 0 240.945 71.1"><g transform="translate(-49.866 -674.719)"><rect width="240.805" height="3.555" transform="translate(49.866 742.264)" fill="#f49600"/><path d="M836.712,591.155l5.052-7.409v-.041h-4.618v-.988h6.163v.718l-5.039,7.382v.04h5.106v.989h-6.664Z" transform="translate(-673.638 144)"/><path d="M846.41,582.717v5.418c0,2.032.907,2.9,2.126,2.9,1.341,0,2.222-.893,2.222-2.9v-5.418h1.192v5.337c0,2.8-1.477,3.941-3.454,3.941-1.869,0-3.278-1.056-3.278-3.9v-5.377Z" transform="translate(-673.638 144)"/><path d="M854.388,582.717H859.3v.989h-3.725v3.034h3.44v.975h-3.44v4.131h-1.192Z" transform="translate(-673.638 144)"/><path d="M862.582,587h1.205c1.26,0,2.059-.691,2.059-1.733,0-1.179-.854-1.694-2.1-1.694a5.175,5.175,0,0,0-1.164.095Zm-1.179-4.158a13.763,13.763,0,0,1,2.262-.189,3.777,3.777,0,0,1,2.641.744,2.334,2.334,0,0,1,.718,1.748,2.4,2.4,0,0,1-1.706,2.316v.041a2.287,2.287,0,0,1,1.327,1.842,14.581,14.581,0,0,0,.7,2.505H866.13a11.415,11.415,0,0,1-.6-2.181c-.271-1.259-.772-1.733-1.842-1.774h-1.11v3.955H861.4Z" transform="translate(-673.638 144)"/><rect width="1.192" height="9.129" transform="translate(195.445 726.717)"/><path d="M877.454,587.566h-3.535v3.292h3.955v.988h-5.147v-9.129h4.944v.989h-3.752v2.885h3.535Z" transform="translate(-673.638 144)"/><path d="M880.989,590.926a9.92,9.92,0,0,0,1.191.054c2.533,0,3.888-1.409,3.888-3.874.013-2.154-1.206-3.522-3.7-3.522a6.738,6.738,0,0,0-1.381.122Zm-1.179-8.073a15.113,15.113,0,0,1,2.506-.2,5.286,5.286,0,0,1,3.7,1.138,4.162,4.162,0,0,1,1.3,3.277A4.884,4.884,0,0,1,886,590.614a5.679,5.679,0,0,1-4.05,1.314,19.023,19.023,0,0,1-2.14-.108Z" transform="translate(-673.638 144)"/><path d="M893.95,587.566h-3.535v3.292h3.955v.988h-5.147v-9.129h4.944v.989h-3.752v2.885h3.535Z" transform="translate(-673.638 144)"/><path d="M896.307,591.846v-9.129h1.3l2.912,4.619a25.551,25.551,0,0,1,1.626,2.966l.041-.014c-.109-1.219-.136-2.329-.136-3.752v-3.819h1.111v9.129h-1.192l-2.9-4.632a26.488,26.488,0,0,1-1.693-3.048l-.04.014c.067,1.151.081,2.248.081,3.765v3.9Z" transform="translate(-673.638 144)"/><path d="M911.856,591.846l-2.316-9.129h1.246l1.083,4.619c.272,1.137.515,2.275.678,3.156h.027c.149-.908.434-1.992.745-3.17l1.219-4.605h1.233l1.11,4.632c.258,1.084.5,2.167.637,3.129h.027c.19-1,.447-2.018.731-3.156l1.206-4.605h1.205l-2.587,9.129h-1.232l-1.151-4.754a27.42,27.42,0,0,1-.6-2.98h-.027a25.367,25.367,0,0,1-.7,2.98l-1.3,4.754Z" transform="translate(-673.638 144)"/><path d="M922.936,587.322c0,1.964,1.056,3.712,2.925,3.712s2.926-1.72,2.926-3.793c0-1.828-.948-3.724-2.912-3.724s-2.939,1.814-2.939,3.8m7.1-.135c0,3.129-1.91,4.808-4.239,4.808-2.425,0-4.1-1.882-4.1-4.645,0-2.9,1.787-4.795,4.226-4.795,2.505,0,4.117,1.91,4.117,4.632" transform="translate(-673.638 144)"/><path d="M933.148,582.717v3.82h4.415v-3.82h1.192v9.129h-1.192v-4.28h-4.415v4.28h-1.192v-9.129Z" transform="translate(-673.638 144)"/><path d="M941.207,591.846v-9.129h1.3l2.911,4.619a25.4,25.4,0,0,1,1.626,2.966l.042-.014c-.109-1.219-.137-2.329-.137-3.752v-3.819h1.111v9.129h-1.192l-2.9-4.632a26.645,26.645,0,0,1-1.693-3.048l-.039.014c.066,1.151.081,2.248.081,3.765v3.9Z" transform="translate(-673.638 144)"/><path d="M955.238,587.566H951.7v3.292h3.955v.988h-5.147v-9.129h4.944v.989H951.7v2.885h3.535Z" transform="translate(-673.638 144)"/><path d="M957.595,591.846v-9.129h1.3l2.912,4.619a25.54,25.54,0,0,1,1.626,2.966l.041-.014c-.109-1.219-.136-2.329-.136-3.752v-3.819h1.111v9.129h-1.192l-2.9-4.632a26.506,26.506,0,0,1-1.693-3.048l-.04.014c.067,1.151.081,2.248.081,3.765v3.9Z" transform="translate(-673.638 144)"/><path d="M833.686,566.894c0-.209.016-.415.016-.625a35.55,35.55,0,0,0-35.549-35.55h0s-3.755.042-3.755,0c12.75,4.012,33.443,11.224,33.443,35.616,0,28.594-29.706,35.482-29.706,35.482h.019c5.252,0,13.364-.075,16.88-2.109A37.854,37.854,0,0,0,833.7,566.839Z" transform="translate(-673.638 144)" fill="#f49600"/><path d="M794.6,598.264A31.994,31.994,0,1,1,826.6,566.27,31.995,31.995,0,0,1,794.6,598.264m0-67.544H723.5v71.1h71.1a35.549,35.549,0,0,0,0-71.1" transform="translate(-673.638 144)" fill="#cad400"/><path d="M768.863,569.036a7.347,7.347,0,0,0,3.222.8c1.335,0,2.04-.553,2.04-1.392,0-.8-.61-1.258-2.154-1.792-2.136-.763-3.547-1.945-3.547-3.813,0-2.193,1.85-3.852,4.862-3.852a7.515,7.515,0,0,1,3.279.649l-.648,2.326a6,6,0,0,0-2.669-.611c-1.258,0-1.868.592-1.868,1.24,0,.82.705,1.182,2.383,1.811,2.269.839,3.317,2.021,3.317,3.832,0,2.155-1.639,3.985-5.167,3.985a8.387,8.387,0,0,1-3.641-.8Z" transform="translate(-673.638 144)"/><path d="M785.219,566.557l-.8-2.726c-.229-.762-.457-1.716-.648-2.478h-.038c-.191.762-.381,1.735-.591,2.478l-.763,2.726Zm-3.26,2.174-.915,3.3H778.05l3.909-12.85h3.813l4,12.85H786.63l-.991-3.3Z" transform="translate(-673.638 144)"/><path d="M794.483,559.18v4.938h4.785V559.18h2.9v12.85h-2.9v-5.376h-4.785v5.376h-2.9V559.18Z" transform="translate(-673.638 144)"/><path d="M804.624,559.18h2.9v10.41h5.11v2.44h-8.008Z" transform="translate(-673.638 144)"/><path d="M822.277,566.6h-4.728v3.05h5.281v2.384h-8.179V559.18h7.912v2.383h-5.014v2.669h4.728Z" transform="translate(-673.638 144)"/><path d="M838.612,572.03l-3.05-12.85h3.107l.973,5.281c.285,1.544.552,3.2.762,4.5h.038c.21-1.391.515-2.936.839-4.537l1.087-5.243h3.088l1.03,5.414c.286,1.507.5,2.879.686,4.309h.039c.19-1.43.476-2.936.743-4.48L849,559.18h2.955l-3.318,12.85h-3.145l-1.087-5.529c-.248-1.3-.458-2.5-.61-3.966h-.039c-.228,1.449-.438,2.67-.743,3.966l-1.22,5.529Z" transform="translate(-673.638 144)"/><path d="M855.463,565.624c0,2.535,1.182,4.308,3.127,4.308,1.964,0,3.088-1.868,3.088-4.366,0-2.325-1.086-4.309-3.088-4.309-1.983,0-3.127,1.869-3.127,4.367m9.285-.153c0,4.232-2.536,6.768-6.311,6.768-3.793,0-6.043-2.879-6.043-6.558,0-3.852,2.478-6.73,6.253-6.73,3.947,0,6.1,2.955,6.1,6.52" transform="translate(-673.638 144)"/><path d="M869.665,559.18v4.938h4.785V559.18h2.9v12.85h-2.9v-5.376h-4.785v5.376h-2.9V559.18Z" transform="translate(-673.638 144)"/><path d="M880.168,572.03V559.18h3.394l2.669,4.709a40.665,40.665,0,0,1,2.1,4.4h.038a53.174,53.174,0,0,1-.229-5.376V559.18h2.669v12.85h-3.05l-2.745-4.957a43.422,43.422,0,0,1-2.231-4.538H882.7c.1,1.716.133,3.527.133,5.625v3.87Z" transform="translate(-673.638 144)"/><path d="M901.252,566.6h-4.728v3.05H901.8v2.384h-8.179V559.18h7.912v2.383h-5.014v2.669h4.728Z" transform="translate(-673.638 144)"/><path d="M904.072,572.03V559.18h3.394l2.669,4.709a40.665,40.665,0,0,1,2.1,4.4h.038a53.174,53.174,0,0,1-.229-5.376V559.18h2.67v12.85H911.66l-2.745-4.957a43.422,43.422,0,0,1-2.231-4.538h-.076c.1,1.716.133,3.527.133,5.625v3.87Z" transform="translate(-673.638 144)"/></g></svg>